<svg id="Layer_1" data-name="Layer 1" xmlns="http://www.w3.org/2000/svg" viewBox="0 0 90.29 73.39"><defs><style>.cls-1{fill:#818285;}</style></defs><path class="cls-1" d="M95.15,21.94a34.6,34.6,0,0,1-10.44,2.88A17.73,17.73,0,0,0,93,14.75a33.8,33.8,0,0,1-11.87,4.31,18.2,18.2,0,0,0-13.31-5.75A18.42,18.42,0,0,0,49.46,31.65,17.53,17.53,0,0,0,49.82,36C34.35,35.25,21,27.7,11.69,16.54A17.84,17.84,0,0,0,8.81,25.9a18.8,18.8,0,0,0,8.27,15.47,21.7,21.7,0,0,1-8.27-2.16v.36a18.21,18.21,0,0,0,14.75,18,21.25,21.25,0,0,1-5,.72,12.15,12.15,0,0,1-3.59-.36,19,19,0,0,0,17.26,13,37.14,37.14,0,0,1-23,7.92,17.53,17.53,0,0,1-4.32-.36,51.55,51.55,0,0,0,28.42,8.27c33.82,0,52.52-28.06,52.52-52.52V31.65a34.31,34.31,0,0,0,9.36-9.71Z" transform="translate(-4.85 -13.31)"/></svg>